<svg width="176" height="38" viewBox="0 0 176 38" fill="none" xmlns="http://www.w3.org/2000/svg">
<g clip-path="url(#clip0_12_19142)">
<mask id="mask0_12_19142" style="mask-type:luminance" maskUnits="userSpaceOnUse" x="24" y="8" width="11" height="16">
<path d="M34.4701 8.6723C34.4701 8.6723 25.2882 14.4652 24.1765 23.948C27.277 20.0244 34.8977 15.227 34.4701 8.6723Z" fill="white"/>
</mask>
<g mask="url(#mask0_12_19142)">
<path d="M34.8977 8.6723H24.1765V23.948H34.8977V8.6723Z" fill="url(#paint0_linear_12_19142)"/>
</g>
<mask id="mask1_12_19142" style="mask-type:luminance" maskUnits="userSpaceOnUse" x="18" y="9" width="14" height="15">
<path d="M31.3378 9.67993C31.3378 9.67993 21.4302 14.1293 18.9918 23.3614C22.6152 19.91 30.8369 16.2298 31.3378 9.67993Z" fill="white"/>
</mask>
<g mask="url(#mask1_12_19142)">
<path d="M31.3378 9.67993H18.9918V23.3614H31.3378V9.67993Z" fill="url(#paint1_linear_12_19142)"/>
</g>
<mask id="mask2_12_19142" style="mask-type:luminance" maskUnits="userSpaceOnUse" x="13" y="11" width="16" height="12">
<path d="M28.1517 11.228C28.1517 11.228 17.6235 13.9127 13.6263 22.5898C17.7921 19.8102 26.5269 17.5928 28.1517 11.228Z" fill="white"/>
</mask>
<g mask="url(#mask2_12_19142)">
<path d="M28.1517 11.228H13.6263V22.5898H28.1517V11.228Z" fill="url(#paint2_linear_12_19142)"/>
</g>
<mask id="mask3_12_19142" style="mask-type:luminance" maskUnits="userSpaceOnUse" x="7" y="10" width="20" height="12">
<path d="M26.1042 10.8726C26.1042 10.8726 13.6385 12.0069 7.50092 21.1465C12.7467 18.7466 23.0867 17.8168 26.1042 10.8726Z" fill="white"/>
</mask>
<g mask="url(#mask3_12_19142)">
<path d="M26.1014 10.8726H7.49811V21.1465H26.1014V10.8726Z" fill="url(#paint3_linear_12_19142)"/>
</g>
<mask id="mask4_12_19142" style="mask-type:luminance" maskUnits="userSpaceOnUse" x="1" y="10" width="23" height="9">
<path d="M23.7611 10.2422C23.7611 10.2422 9.84649 9.22967 1.42688 18.1648C7.63286 16.4781 19.175 17.3324 23.7611 10.2422Z" fill="white"/>
</mask>
<g mask="url(#mask4_12_19142)">
<path d="M23.7611 9.22968H1.42688V18.1673H23.7611V9.22968Z" fill="url(#paint4_linear_12_19142)"/>
</g>
<mask id="mask5_12_19142" style="mask-type:luminance" maskUnits="userSpaceOnUse" x="0" y="7" width="24" height="6">
<path d="M23.4166 8.7964C23.4166 8.7964 9.92468 5.25496 0 12.4985C6.41366 11.9752 17.6015 14.9252 23.4166 8.7964Z" fill="white"/>
</mask>
<g mask="url(#mask5_12_19142)">
<path d="M23.4166 5.25494H0V14.9252H23.4166V5.25494Z" fill="url(#paint5_linear_12_19142)"/>
</g>
<mask id="mask6_12_19142" style="mask-type:luminance" maskUnits="userSpaceOnUse" x="24" y="17" width="8" height="20">
<path d="M30.4142 17.8192C30.4142 17.8192 22.3513 24.3739 24.7799 36.3905C26.9985 30.3737 33.5538 25.6518 30.4142 17.8192Z" fill="white"/>
</mask>
<g mask="url(#mask6_12_19142)">
<path d="M33.5538 17.8192H22.3513V36.3905H33.5538V17.8192Z" fill="url(#paint6_linear_12_19142)"/>
</g>
<mask id="mask7_12_19142" style="mask-type:luminance" maskUnits="userSpaceOnUse" x="28" y="17" width="6" height="21">
<path d="M30.4142 17.8192C30.4142 17.8192 24.8875 26.6035 31.0568 37.2083C31.2205 30.8021 35.9092 24.2352 30.4142 17.8192Z" fill="white"/>
</mask>
<g mask="url(#mask7_12_19142)">
<path d="M35.9092 17.8192H24.8875V37.2083H35.9092V17.8192Z" fill="url(#paint7_linear_12_19142)"/>
</g>
<mask id="mask8_12_19142" style="mask-type:luminance" maskUnits="userSpaceOnUse" x="30" y="17" width="8" height="19">
<path d="M30.4142 17.8192C30.4142 17.8192 28.0075 27.9056 37.2652 35.9792C35.357 29.8577 37.6854 22.1395 30.4142 17.8192Z" fill="white"/>
</mask>
<g mask="url(#mask8_12_19142)">
<path d="M37.6854 17.8192H28.0075V35.9792H37.6854V17.8192Z" fill="url(#paint8_linear_12_19142)"/>
</g>
<mask id="mask9_12_19142" style="mask-type:luminance" maskUnits="userSpaceOnUse" x="30" y="2" width="18" height="22">
<path d="M34.6997 7.40419C33.2509 9.59235 32.3493 11.4592 31.7653 13.3017C31.2913 14.7913 31.025 16.2663 30.8442 17.8825C30.7343 18.8658 30.6561 19.9003 30.5803 21.0223C30.5193 21.9473 30.4606 22.9282 30.3898 23.9918C38.4844 23.264 42.9044 13.7739 43.5714 8.87189C43.5714 8.87189 44.534 5.60791 47.703 5.81967C47.703 5.81967 46.8478 4.64892 44.5316 4.75602C44.5316 4.75602 41.5043 1.00136e-05 35.8041 5.81967C35.4034 6.36732 35.0369 6.89549 34.6997 7.40419Z" fill="white"/>
</mask>
<g mask="url(#mask9_12_19142)">
<path d="M47.703 0H30.3873V23.9918H47.703V0Z" fill="url(#paint9_linear_12_19142)"/>
</g>
<mask id="mask10_12_19142" style="mask-type:luminance" maskUnits="userSpaceOnUse" x="5" y="1" width="33" height="23">
<path d="M37.2359 20.7059C37.4558 19.3234 38.5455 10.2739 34.6997 7.40421C27.6068 2.11273 9.43601 8.07599 5.05762 1.0296C9.84893 21.4507 27.3747 0.299407 30.3873 23.9918C30.4117 23.9894 30.4337 23.9869 30.4582 23.9845C31.2083 23.9115 31.9266 23.7655 32.6132 23.5513C33.2826 23.3444 33.9203 23.0766 34.5287 22.7578C35.4962 22.2491 36.4809 21.7039 37.2017 20.8836C37.2212 20.8617 37.2334 20.7984 37.2359 20.7059Z" fill="white"/>
</mask>
<g mask="url(#mask10_12_19142)">
<path d="M38.5479 0.299377H5.05762V23.9918H38.5479V0.299377Z" fill="url(#paint10_linear_12_19142)"/>
</g>
</g>
<path d="M173.274 19.4342C173.146 18.7473 172.917 18.2257 172.587 17.8695C172.269 17.5134 171.779 17.3353 171.117 17.3353C170.685 17.3353 170.322 17.4116 170.03 17.5642C169.75 17.7042 169.521 17.8823 169.343 18.0985C169.177 18.3148 169.057 18.5437 168.98 18.7854C168.917 19.0271 168.878 19.2434 168.866 19.4342H173.274ZM168.866 21.1515C168.904 22.0292 169.127 22.6653 169.534 23.0596C169.941 23.454 170.526 23.6511 171.289 23.6511C171.836 23.6511 172.307 23.5176 172.701 23.2504C173.095 22.9706 173.337 22.678 173.426 22.3727H175.811C175.43 23.5557 174.845 24.4017 174.056 24.9105C173.267 25.4193 172.313 25.6737 171.194 25.6737C170.418 25.6737 169.718 25.5529 169.095 25.3112C168.471 25.0568 167.944 24.7006 167.511 24.2427C167.079 23.7847 166.741 23.2377 166.5 22.6017C166.271 21.9656 166.156 21.266 166.156 20.5027C166.156 19.7649 166.277 19.078 166.519 18.442C166.76 17.8059 167.104 17.2589 167.549 16.801C167.994 16.3303 168.522 15.9614 169.133 15.6943C169.756 15.4271 170.443 15.2936 171.194 15.2936C172.033 15.2936 172.765 15.4589 173.388 15.7897C174.011 16.1077 174.52 16.5402 174.915 17.0872C175.322 17.6342 175.614 18.2575 175.792 18.9572C175.97 19.6568 176.034 20.3883 175.983 21.1515H168.866Z" fill="white"/>
<path d="M162.393 19.0335C162.215 17.9013 161.547 17.3353 160.39 17.3353C159.957 17.3353 159.595 17.437 159.302 17.6406C159.009 17.8314 158.768 18.0858 158.577 18.4038C158.399 18.7091 158.272 19.0526 158.195 19.4342C158.119 19.8031 158.081 20.172 158.081 20.5409C158.081 20.8971 158.119 21.2596 158.195 21.6285C158.272 21.9974 158.392 22.3345 158.558 22.6398C158.736 22.9324 158.971 23.1741 159.264 23.3649C159.556 23.5557 159.913 23.6511 160.332 23.6511C160.981 23.6511 161.477 23.4731 161.821 23.1169C162.177 22.748 162.399 22.2582 162.489 21.6476H165.103C164.925 22.9579 164.416 23.9564 163.576 24.6434C162.737 25.3303 161.662 25.6737 160.351 25.6737C159.614 25.6737 158.933 25.5529 158.31 25.3112C157.699 25.0568 157.178 24.707 156.745 24.2617C156.313 23.8165 155.975 23.2886 155.734 22.678C155.492 22.0547 155.371 21.3741 155.371 20.6363C155.371 19.8731 155.479 19.1671 155.696 18.5183C155.925 17.8568 156.255 17.2907 156.688 16.8201C157.12 16.3367 157.648 15.9614 158.272 15.6943C158.895 15.4271 159.607 15.2936 160.409 15.2936C160.994 15.2936 161.554 15.3699 162.088 15.5226C162.635 15.6752 163.118 15.9105 163.538 16.2286C163.97 16.5339 164.32 16.9218 164.587 17.3925C164.855 17.8505 165.007 18.3975 165.045 19.0335H162.393Z" fill="white"/>
<path d="M153.543 14.0343H150.833V11.8018H153.543V14.0343ZM150.833 15.5608H153.543V25.4257H150.833V15.5608Z" fill="white"/>
<path d="M146.301 25.4257H143.286L139.909 15.5607H142.752L144.832 22.2964H144.87L146.95 15.5607H149.64L146.301 25.4257Z" fill="white"/>
<path d="M133.427 15.5607H136.003V17.3925H136.042C136.169 17.0872 136.341 16.8074 136.557 16.5529C136.773 16.2858 137.021 16.0632 137.301 15.8851C137.581 15.6943 137.88 15.548 138.198 15.4462C138.516 15.3445 138.847 15.2936 139.19 15.2936C139.368 15.2936 139.565 15.3254 139.782 15.389V17.9077C139.654 17.8823 139.502 17.8632 139.324 17.8505C139.145 17.825 138.974 17.8123 138.808 17.8123C138.312 17.8123 137.892 17.895 137.549 18.0604C137.206 18.2257 136.926 18.4547 136.709 18.7473C136.506 19.0271 136.36 19.3579 136.271 19.7395C136.182 20.1211 136.137 20.5345 136.137 20.9798V25.4257H133.427V15.5607Z" fill="white"/>
<path d="M129.111 19.4342C128.984 18.7473 128.755 18.2257 128.424 17.8695C128.106 17.5134 127.616 17.3353 126.955 17.3353C126.522 17.3353 126.16 17.4116 125.867 17.5642C125.587 17.7042 125.358 17.8823 125.18 18.0985C125.015 18.3148 124.894 18.5437 124.818 18.7854C124.754 19.0271 124.716 19.2434 124.703 19.4342H129.111ZM124.703 21.1515C124.741 22.0292 124.964 22.6653 125.371 23.0596C125.778 23.454 126.363 23.6511 127.127 23.6511C127.674 23.6511 128.144 23.5176 128.539 23.2504C128.933 22.9706 129.175 22.678 129.264 22.3727H131.649C131.267 23.5557 130.682 24.4017 129.893 24.9105C129.105 25.4193 128.151 25.6737 127.031 25.6737C126.255 25.6737 125.556 25.5529 124.932 25.3112C124.309 25.0568 123.781 24.7006 123.348 24.2427C122.916 23.7847 122.579 23.2377 122.337 22.6017C122.108 21.9656 121.994 21.266 121.994 20.5027C121.994 19.7649 122.115 19.078 122.356 18.442C122.598 17.8059 122.941 17.2589 123.387 16.801C123.832 16.3303 124.36 15.9614 124.97 15.6943C125.594 15.4271 126.281 15.2936 127.031 15.2936C127.871 15.2936 128.602 15.4589 129.225 15.7897C129.849 16.1077 130.358 16.5402 130.752 17.0872C131.159 17.6342 131.452 18.2575 131.63 18.9572C131.808 19.6568 131.871 20.3883 131.821 21.1515H124.703Z" fill="white"/>
<path d="M112.407 20.9035C112.407 21.3615 112.49 21.7495 112.655 22.0675C112.82 22.3855 113.037 22.6463 113.304 22.8498C113.584 23.0406 113.908 23.1869 114.277 23.2887C114.646 23.3777 115.028 23.4222 115.422 23.4222C115.689 23.4222 115.975 23.4032 116.281 23.365C116.586 23.3141 116.872 23.2251 117.139 23.0979C117.406 22.9707 117.629 22.7989 117.807 22.5827C117.985 22.3537 118.074 22.0675 118.074 21.724C118.074 21.3551 117.953 21.0562 117.712 20.8272C117.483 20.5982 117.177 20.4074 116.796 20.2548C116.414 20.1021 115.982 19.9685 115.498 19.8541C115.015 19.7396 114.525 19.6124 114.029 19.4724C113.52 19.3452 113.024 19.1926 112.541 19.0145C112.057 18.8237 111.625 18.582 111.243 18.2894C110.861 17.9968 110.55 17.6343 110.308 17.2018C110.079 16.7565 109.965 16.2223 109.965 15.599C109.965 14.8993 110.111 14.2951 110.404 13.7862C110.709 13.2647 111.103 12.8322 111.587 12.4887C112.07 12.1453 112.617 11.8908 113.228 11.7255C113.838 11.5601 114.449 11.4774 115.059 11.4774C115.772 11.4774 116.452 11.5601 117.101 11.7255C117.763 11.8781 118.348 12.1325 118.857 12.4887C119.365 12.8449 119.766 13.3029 120.059 13.8626C120.364 14.4096 120.517 15.0774 120.517 15.8661H117.616C117.591 15.459 117.502 15.1219 117.349 14.8548C117.209 14.5877 117.018 14.3778 116.777 14.2251C116.535 14.0725 116.255 13.9643 115.937 13.9007C115.632 13.8371 115.295 13.8053 114.926 13.8053C114.684 13.8053 114.442 13.8308 114.201 13.8816C113.959 13.9325 113.736 14.0216 113.533 14.1488C113.342 14.276 113.183 14.435 113.056 14.6258C112.929 14.8166 112.865 15.0583 112.865 15.3509C112.865 15.618 112.916 15.8343 113.018 15.9997C113.119 16.165 113.317 16.3177 113.609 16.4576C113.914 16.5975 114.328 16.7375 114.849 16.8774C115.384 17.0173 116.077 17.1954 116.929 17.4117C117.184 17.4626 117.534 17.558 117.979 17.6979C118.437 17.8251 118.888 18.035 119.334 18.3276C119.779 18.6201 120.16 19.0145 120.478 19.5106C120.809 19.994 120.975 20.6173 120.975 21.3806C120.975 22.0039 120.854 22.5827 120.612 23.1169C120.37 23.6512 120.008 24.1155 119.524 24.5099C119.054 24.8915 118.462 25.1904 117.75 25.4067C117.05 25.6229 116.236 25.7311 115.307 25.7311C114.557 25.7311 113.825 25.6357 113.113 25.4449C112.413 25.2668 111.79 24.9805 111.243 24.5862C110.709 24.1919 110.283 23.6894 109.965 23.0788C109.647 22.4682 109.494 21.7431 109.507 20.9035H112.407Z" fill="white"/>
<path d="M100.819 20.5027C100.819 20.8971 100.857 21.2851 100.933 21.6667C101.009 22.0356 101.137 22.3727 101.315 22.678C101.505 22.9706 101.754 23.2059 102.059 23.384C102.364 23.5621 102.746 23.6511 103.204 23.6511C103.662 23.6511 104.043 23.5621 104.349 23.384C104.667 23.2059 104.915 22.9706 105.093 22.678C105.284 22.3727 105.417 22.0356 105.493 21.6667C105.57 21.2851 105.608 20.8971 105.608 20.5027C105.608 20.1084 105.57 19.7204 105.493 19.3388C105.417 18.9572 105.284 18.6201 105.093 18.3275C104.915 18.0349 104.667 17.7996 104.349 17.6215C104.043 17.4307 103.662 17.3353 103.204 17.3353C102.746 17.3353 102.364 17.4307 102.059 17.6215C101.754 17.7996 101.505 18.0349 101.315 18.3275C101.137 18.6201 101.009 18.9572 100.933 19.3388C100.857 19.7204 100.819 20.1084 100.819 20.5027ZM98.109 20.5027C98.109 19.7141 98.2299 19.0017 98.4716 18.3657C98.7132 17.7169 99.0567 17.1699 99.5019 16.7247C99.9472 16.2667 100.481 15.9169 101.105 15.6752C101.728 15.4208 102.428 15.2936 103.204 15.2936C103.98 15.2936 104.679 15.4208 105.303 15.6752C105.939 15.9169 106.479 16.2667 106.925 16.7247C107.37 17.1699 107.713 17.7169 107.955 18.3657C108.197 19.0017 108.317 19.7141 108.317 20.5027C108.317 21.2914 108.197 22.0038 107.955 22.6398C107.713 23.2759 107.37 23.8229 106.925 24.2808C106.479 24.726 105.939 25.0695 105.303 25.3112C104.679 25.5529 103.98 25.6737 103.204 25.6737C102.428 25.6737 101.728 25.5529 101.105 25.3112C100.481 25.0695 99.9472 24.726 99.5019 24.2808C99.0567 23.8229 98.7132 23.2759 98.4716 22.6398C98.2299 22.0038 98.109 21.2914 98.109 20.5027Z" fill="white"/>
<path d="M95.1407 15.5607H97.1251V17.3734H95.1407V22.2582C95.1407 22.7162 95.217 23.0215 95.3697 23.1741C95.5223 23.3268 95.8276 23.4031 96.2855 23.4031C96.4382 23.4031 96.5845 23.3967 96.7244 23.384C96.8643 23.3713 96.9979 23.3522 97.1251 23.3268V25.4257C96.8961 25.4639 96.6417 25.4893 96.3619 25.502C96.082 25.5148 95.8085 25.5211 95.5414 25.5211C95.1216 25.5211 94.7209 25.4893 94.3393 25.4257C93.9704 25.3748 93.6396 25.2667 93.347 25.1013C93.0672 24.936 92.8446 24.7006 92.6792 24.3953C92.5138 24.09 92.4311 23.6893 92.4311 23.1932V17.3734H90.7902V15.5607H92.4311V12.6031H95.1407V15.5607Z" fill="white"/>
<path d="M82.4454 20.5027C82.4454 20.8971 82.4836 21.2851 82.5599 21.6667C82.6362 22.0356 82.7635 22.3727 82.9415 22.678C83.1324 22.9706 83.3804 23.2059 83.6857 23.384C83.991 23.5621 84.3726 23.6511 84.8306 23.6511C85.2885 23.6511 85.6702 23.5621 85.9755 23.384C86.2935 23.2059 86.5415 22.9706 86.7196 22.678C86.9104 22.3727 87.044 22.0356 87.1203 21.6667C87.1966 21.2851 87.2348 20.8971 87.2348 20.5027C87.2348 20.1084 87.1966 19.7204 87.1203 19.3388C87.044 18.9572 86.9104 18.6201 86.7196 18.3275C86.5415 18.0349 86.2935 17.7996 85.9755 17.6215C85.6702 17.4307 85.2885 17.3353 84.8306 17.3353C84.3726 17.3353 83.991 17.4307 83.6857 17.6215C83.3804 17.7996 83.1324 18.0349 82.9415 18.3275C82.7635 18.6201 82.6362 18.9572 82.5599 19.3388C82.4836 19.7204 82.4454 20.1084 82.4454 20.5027ZM79.7359 20.5027C79.7359 19.7141 79.8567 19.0017 80.0984 18.3657C80.3401 17.7169 80.6836 17.1699 81.1288 16.7247C81.5741 16.2667 82.1083 15.9169 82.7316 15.6752C83.355 15.4208 84.0546 15.2936 84.8306 15.2936C85.6065 15.2936 86.3062 15.4208 86.9295 15.6752C87.5656 15.9169 88.1062 16.2667 88.5514 16.7247C88.9966 17.1699 89.3401 17.7169 89.5818 18.3657C89.8235 19.0017 89.9443 19.7141 89.9443 20.5027C89.9443 21.2914 89.8235 22.0038 89.5818 22.6398C89.3401 23.2759 88.9966 23.8229 88.5514 24.2808C88.1062 24.726 87.5656 25.0695 86.9295 25.3112C86.3062 25.5529 85.6065 25.6737 84.8306 25.6737C84.0546 25.6737 83.355 25.5529 82.7316 25.3112C82.1083 25.0695 81.5741 24.726 81.1288 24.2808C80.6836 23.8229 80.3401 23.2759 80.0984 22.6398C79.8567 22.0038 79.7359 21.2914 79.7359 20.5027Z" fill="white"/>
<path d="M68.7303 11.8018H71.4399V16.9346H71.4971C71.8406 16.3622 72.2794 15.9487 72.8137 15.6943C73.348 15.4272 73.8695 15.2936 74.3784 15.2936C75.1035 15.2936 75.695 15.3954 76.1529 15.5989C76.6236 15.7897 76.9925 16.0632 77.2596 16.4194C77.5268 16.7629 77.7112 17.189 77.813 17.6978C77.9275 18.194 77.9847 18.7473 77.9847 19.3579V25.4257H75.2752V19.854C75.2752 19.0399 75.148 18.4357 74.8936 18.0413C74.6392 17.6342 74.1876 17.4307 73.5388 17.4307C72.801 17.4307 72.2667 17.6533 71.936 18.0986C71.6052 18.5311 71.4399 19.2498 71.4399 20.2547V25.4257H68.7303V11.8018Z" fill="white"/>
<path d="M59.2853 18.213H61.6132C61.9567 18.213 62.2874 18.1876 62.6054 18.1367C62.9234 18.0858 63.2033 17.9904 63.445 17.8505C63.6867 17.6978 63.8775 17.488 64.0174 17.2208C64.1701 16.9537 64.2464 16.6039 64.2464 16.1714C64.2464 15.7388 64.1701 15.389 64.0174 15.1219C63.8775 14.8547 63.6867 14.6512 63.445 14.5113C63.2033 14.3586 62.9234 14.2569 62.6054 14.206C62.2874 14.1551 61.9567 14.1297 61.6132 14.1297H59.2853V18.213ZM56.2896 11.8018H62.4337C63.286 11.8018 64.0111 11.929 64.609 12.1834C65.2068 12.4251 65.6902 12.7495 66.0591 13.1565C66.4407 13.5636 66.7142 14.0279 66.8796 14.5494C67.0577 15.071 67.1468 15.6116 67.1468 16.1714C67.1468 16.7183 67.0577 17.259 66.8796 17.7933C66.7142 18.3148 66.4407 18.7791 66.0591 19.1862C65.6902 19.5932 65.2068 19.924 64.609 20.1784C64.0111 20.4201 63.286 20.5409 62.4337 20.5409H59.2853V25.4257H56.2896V11.8018Z" fill="white"/>
<defs>
<linearGradient id="paint0_linear_12_19142" x1="29.5166" y1="16.3729" x2="25.2918" y2="28.7975" gradientUnits="userSpaceOnUse">
<stop stop-color="#004B80"/>
<stop offset="1" stop-color="#29C4FF"/>
</linearGradient>
<linearGradient id="paint1_linear_12_19142" x1="25.0068" y1="17.3838" x2="23.2633" y2="26.977" gradientUnits="userSpaceOnUse">
<stop stop-color="#005998"/>
<stop offset="1" stop-color="#29C4FF"/>
</linearGradient>
<linearGradient id="paint2_linear_12_19142" x1="21.3807" y1="15.0697" x2="18.3315" y2="26.5521" gradientUnits="userSpaceOnUse">
<stop stop-color="#005998"/>
<stop offset="1" stop-color="#29C4FF"/>
</linearGradient>
<linearGradient id="paint3_linear_12_19142" x1="18.5012" y1="12.1614" x2="12.344" y2="26.2024" gradientUnits="userSpaceOnUse">
<stop stop-color="#005998"/>
<stop offset="1" stop-color="#29C4FF"/>
</linearGradient>
<linearGradient id="paint4_linear_12_19142" x1="15.0535" y1="11.1185" x2="7.61609" y2="18.9773" gradientUnits="userSpaceOnUse">
<stop stop-color="#0067AF"/>
<stop offset="1" stop-color="#29C4FF"/>
</linearGradient>
<linearGradient id="paint5_linear_12_19142" x1="16.1416" y1="6.8127" x2="5.98238" y2="14.3822" gradientUnits="userSpaceOnUse">
<stop stop-color="#0067AF"/>
<stop offset="1" stop-color="#29C4FF"/>
</linearGradient>
<linearGradient id="paint6_linear_12_19142" x1="27.7408" y1="26.9644" x2="37.0898" y2="33.2024" gradientUnits="userSpaceOnUse">
<stop stop-color="#005EA0"/>
<stop offset="1" stop-color="#29C4FF"/>
</linearGradient>
<linearGradient id="paint7_linear_12_19142" x1="27.5511" y1="24.734" x2="39.0664" y2="36.0629" gradientUnits="userSpaceOnUse">
<stop stop-color="#0062A7"/>
<stop offset="1" stop-color="#29C4FF"/>
</linearGradient>
<linearGradient id="paint8_linear_12_19142" x1="27.5604" y1="23.8368" x2="38.3582" y2="30.1415" gradientUnits="userSpaceOnUse">
<stop stop-color="#0067AF"/>
<stop offset="1" stop-color="#29C4FF"/>
</linearGradient>
<linearGradient id="paint9_linear_12_19142" x1="38.9585" y1="12.5792" x2="40.9671" y2="-1.04566" gradientUnits="userSpaceOnUse">
<stop stop-color="#0067AF"/>
<stop offset="1" stop-color="#29C4FF"/>
</linearGradient>
<linearGradient id="paint10_linear_12_19142" x1="37.303" y1="24.9718" x2="11.3056" y2="3.29567" gradientUnits="userSpaceOnUse">
<stop stop-color="#0067AF"/>
<stop offset="1" stop-color="#29C4FF"/>
</linearGradient>
<clipPath id="clip0_12_19142">
<rect width="47.703" height="37.2083" fill="white"/>
</clipPath>
</defs>
</svg>
